<svg width="152" height="46" viewBox="0 0 152 46" fill="none" xmlns="http://www.w3.org/2000/svg">
<g clip-path="url(#clip0_333_200)">
<path d="M22.0223 8.51388C23.0356 8.23562 24.1195 8.37922 25.0262 8.91134C26.1106 9.54352 26.7886 10.5855 27.1365 11.7854C27.3687 12.5888 27.1293 13.0781 26.9148 13.8381C26.8708 13.9935 26.8504 13.9384 26.9519 14.0305C27.7049 14.4643 28.3973 15.1354 29.2195 15.5041C30.0818 14.5685 30.651 14.0344 31.9519 13.7385C34.1392 13.2419 36.3056 14.83 36.743 16.9787C36.9708 18.082 36.7492 19.2333 36.1277 20.1721C35.4107 21.2414 34.4634 21.7669 33.2215 22.0149L33.1932 25.0481C38.3515 25.7873 37.7945 33.0248 32.8308 33.3801C31.2974 33.4892 30.1494 32.4268 29.116 31.4318C28.3017 31.9866 27.6556 32.3502 26.7986 32.8332C27.2227 34.0433 27.4122 34.7495 26.8846 36.0217C26.4344 37.0985 25.715 37.9153 24.6297 38.3381C22.2718 39.2559 19.948 38.1641 19.1033 35.7883C18.6687 34.5641 18.8212 33.9573 19.3152 32.8108C18.6909 32.5387 17.5101 31.792 16.8328 31.4143C16.1224 32.2785 15.3891 32.9643 14.2732 33.2639C12.1011 33.8461 9.87589 32.2973 9.35038 30.1652C9.08381 29.0682 9.26568 27.9089 9.85624 26.9475C10.555 25.798 11.6183 25.3511 12.8631 25.0422C12.9257 24.2885 12.8941 22.8219 12.9021 21.9953C10.6607 21.6012 9.14367 19.9257 9.26444 17.5959C9.33129 16.4683 9.8464 15.4136 10.6941 14.6691C11.4938 13.955 12.546 13.59 13.615 13.6565C15.0497 13.7494 15.8986 14.4648 16.7918 15.4738C17.7229 15.0668 18.2524 14.502 19.1433 14.0461L19.2234 13.925C18.8503 12.6002 18.7302 11.8449 19.4764 10.5178C20.0289 9.5404 20.9438 8.81971 22.0223 8.51388Z" fill="#D4D2FD"/>
<path d="M22.0225 8.51403C23.036 8.23542 24.1194 8.37937 25.0264 8.91149C26.1117 9.54353 26.7886 10.5852 27.1367 11.7855C27.3697 12.5899 27.1297 13.0777 26.915 13.8382C26.8709 13.9947 26.8508 13.9388 26.9521 14.0306C26.6875 14.2589 26.4871 14.5901 26.3311 14.9017C27.1436 15.3188 27.9406 15.8258 28.7207 16.305L28.6914 16.4271C28.2259 18.3982 28.5473 19.7775 30.1211 21.14C30.7928 21.7214 31.3883 21.8451 32.2188 22.0414L32.1807 25.0375C32.0655 25.0643 31.9505 25.0929 31.8359 25.1224C29.2265 25.7997 28.035 27.9802 28.7197 30.5609C28.2191 31.0568 27.0765 31.6687 26.4219 32.0453C24.1696 29.7198 22.0091 29.5686 19.7334 32.0033C18.8886 31.5204 18.1525 31.1144 17.3887 30.5062C17.4308 30.2739 17.4691 30.0397 17.5029 29.806C17.8371 27.4172 16.2672 25.3899 13.8867 25.0736L13.8789 22.0209C16.4254 21.5215 18.3859 18.8263 17.2861 16.3392C18.0192 15.8117 18.8446 15.4652 19.5869 14.8734C19.5654 14.5914 19.4131 14.1752 19.1436 14.0463L19.2236 13.9252C18.8505 12.6004 18.7301 11.8453 19.4766 10.5179C20.0291 9.54058 20.944 8.81987 22.0225 8.51403Z" fill="white"/>
<path d="M19.143 14.0467L19.2231 13.9255C18.8497 12.5999 18.7286 11.846 19.4753 10.5182C20.0279 9.54024 20.943 8.82022 22.0219 8.51433C23.0357 8.23559 24.1187 8.37871 25.0258 8.91113C26.1114 9.54329 26.788 10.5846 27.136 11.7853C27.3692 12.5902 27.1285 13.0774 26.9138 13.8386C26.8695 13.9953 26.8493 13.9381 26.9512 14.0305C26.6863 14.259 26.4863 14.5901 26.3302 14.902C25.5616 16.0319 24.2011 16.6248 22.8555 16.572C21.482 16.5181 20.484 15.8475 19.5855 14.8737C19.5643 14.5916 19.4129 14.1758 19.143 14.0467Z" fill="#A59FFF"/>
<path d="M44.7251 11.69C46.5488 11.6397 48.4245 11.7212 50.244 11.6772C54.3023 11.5791 59.2821 11.3341 60.6226 16.2761C60.8829 17.2359 60.8407 18.3751 60.6574 19.3435C60.2671 21.2742 59.214 22.0954 57.6651 23.0929C61.5074 24.1094 62.9481 28.6333 61.0406 31.9311C60.7353 32.3738 60.3487 32.9607 59.9689 33.3269C57.3428 35.8593 53.7721 35.4621 50.4731 35.4567C48.5331 35.4489 46.5931 35.4514 44.6531 35.4642C44.5882 33.539 44.6235 29.1739 44.6372 27.3706C44.6488 25.842 44.5717 11.8929 44.7251 11.69Z" fill="#202020"/>
<path d="M48.6009 25.1437C49.4387 25.1393 50.3182 25.1428 51.1587 25.1312C53.8616 25.0938 57.5772 24.6966 57.7818 28.4348C57.8413 29.52 57.3956 30.1585 56.6704 30.9152C55.239 32.1349 53.3887 31.7703 51.6347 31.8179C50.626 31.8453 49.5811 31.807 48.5684 31.8006C48.5616 29.5816 48.5725 27.3626 48.6009 25.1437Z" fill="white"/>
<path d="M48.5908 15.3054C50.335 15.295 52.8018 15.1345 54.4515 15.4129C57.0458 15.8506 57.4277 18.901 55.7979 20.7099C54.4871 21.9712 50.4624 21.585 48.5742 21.5846L48.5908 15.3054Z" fill="white"/>
<path d="M90.6588 18.0778C90.8569 18.0629 91.1345 18.0619 91.3379 18.0627C93.0018 18.0828 94.5923 18.7539 95.7695 19.9327C98.0628 22.2656 97.7259 25.3656 97.7296 28.3437L97.7207 35.4425C96.4092 35.4571 95.0985 35.4555 93.7871 35.4378L93.7752 28.6693C93.7759 27.4201 93.8531 25.9163 93.675 24.7053C93.2445 21.7836 89.7288 20.8712 87.5445 22.5986L87.5141 22.6285C86.3199 23.8132 86.1359 24.7747 86.1322 26.4013C86.1299 27.3967 86.1255 28.411 86.127 29.409L86.1373 35.45L82.1562 35.4579L82.1615 18.4284L85.8175 18.4401C85.8472 19.233 85.8138 20.1923 85.8063 20.9971C87.0688 19.1765 88.4478 18.3161 90.6588 18.0778Z" fill="#202020"/>
<path d="M133.802 18.4232L138.456 18.4219C137.918 19.3268 137.219 20.2137 136.609 21.0853C135.302 22.9511 133.981 24.9028 132.599 26.7084L136.684 32.4683C137.087 33.0351 138.423 34.8231 138.645 35.3722C138.48 35.4764 138.094 35.4437 137.879 35.4428C136.628 35.4596 135.352 35.4488 134.098 35.4508C133.712 34.7079 133.313 34.2556 132.849 33.5785C132.001 32.3399 130.978 31.0415 130.215 29.7634C130.094 29.8994 130.009 30.0222 129.909 30.1722C128.749 31.9082 127.451 33.6685 126.332 35.4226C124.961 35.507 123.113 35.4469 121.697 35.4465C122.177 34.6251 122.705 33.9634 123.243 33.1904C124.312 31.6392 125.395 30.0974 126.491 28.5652C126.833 28.078 127.57 27.3016 127.719 26.7323C127.808 26.3932 122.603 19.5114 122.032 18.4461C123.579 18.4278 125.125 18.4225 126.671 18.4301C127.86 20.075 129.137 22.0059 130.294 23.6979C130.796 22.8234 131.448 22.0015 131.98 21.1368C132.55 20.2117 133.31 19.3976 133.802 18.4232Z" fill="#202020"/>
<path d="M102.833 13.4009L106.3 13.3789L106.282 18.4281L110.678 18.4322L110.666 21.9444L106.316 21.9339C106.26 23.3878 106.127 29.1474 106.432 30.2755C106.599 30.8894 106.946 31.4208 107.509 31.7358C108.507 32.2945 109.702 32.0156 110.737 31.726C110.864 32.6673 111.188 33.669 111.457 34.5872C111.523 34.8105 111.53 34.857 111.539 35.0899C111.208 35.5731 108.868 35.6888 108.24 35.6987C106.665 35.7236 105.226 35.338 104.083 34.1832C102.118 32.1964 102.367 29.5473 102.377 26.9937L102.396 21.9395L99.5924 21.9308C99.5857 20.763 99.5865 19.5952 99.5946 18.4274L102.406 18.4238C102.396 17.2857 102.303 14.589 102.416 13.5238C102.539 13.382 102.595 13.423 102.833 13.4009Z" fill="#202020"/>
<path d="M66.5443 10.5758L68.4233 10.5664L68.4217 35.4542L66.1834 35.4501L64.5191 35.4599L64.5216 19.6178C64.5196 16.6872 64.4543 13.4944 64.5408 10.5809L66.5443 10.5758Z" fill="#202020"/>
<path d="M71.2347 18.4297L77.846 18.4331L77.8408 35.4508L73.8823 35.4584L73.9084 21.9609C73.0405 21.931 72.1039 21.94 71.2305 21.932L71.2347 18.4297Z" fill="#202020"/>
<path d="M112.517 18.4518C114.626 18.3734 117.1 18.4283 119.226 18.4358C119.287 20.7088 119.246 23.1776 119.246 25.4669C119.26 28.7917 119.249 32.1166 119.214 35.4413C117.919 35.4585 116.587 35.4424 115.29 35.4427L115.325 21.9399L112.575 21.9328C112.512 20.7991 112.513 19.5864 112.517 18.4518Z" fill="#202020"/>
<path d="M116.627 10.6023C118.089 10.2929 119.526 11.2244 119.844 12.6878C120.163 14.1512 119.243 15.5979 117.785 15.9269C116.314 16.259 114.853 15.3265 114.532 13.8491C114.21 12.3718 115.151 10.9145 116.627 10.6023Z" fill="#BAB5FF"/>
<path d="M75.2875 10.63C76.7422 10.3411 78.1553 11.2884 78.4441 12.7462C78.7328 14.204 77.7887 15.6207 76.3348 15.9112C74.8793 16.2019 73.4643 15.2544 73.175 13.7955C72.8859 12.3366 73.8319 10.9191 75.2875 10.63Z" fill="#BAB5FF"/>
</g>
<defs>
<clipPath id="clip0_333_200">
<rect width="152" height="46" fill="white"/>
</clipPath>
</defs>
</svg>
