<svg width="402" height="77" viewBox="0 0 402 77" fill="none" xmlns="http://www.w3.org/2000/svg">
<path d="M34.7062 0C35.301 0.0114186 35.863 0.104783 36.4333 0.278077C39.3174 1.15462 70.1149 18.2925 70.6136 19.4404C71.0163 20.3663 70.8974 21.3289 70.5911 22.2524C68.4167 24.3047 40.1867 39.613 36.1444 41.442C32.1495 41.3597 18.4405 32.0536 14.0287 30.1285C10.8147 28.7264 6.27504 25.7831 2.95828 24.2084C-0.0625847 22.7737 -1.38929 20.0419 2.01212 18.0359C5.66376 15.8046 9.52196 13.8198 13.2888 11.7759C20.4584 7.90601 27.5977 3.98038 34.7062 0ZM21.151 20.006C23.2166 21.1714 34.3744 27.6702 35.7397 27.7427C40.5081 25.2055 45.2477 22.6141 49.9576 19.9694C47.2891 18.5451 36.8252 12.5245 35.076 12.4086C30.4604 14.8791 25.6587 17.3777 21.151 20.006Z" fill="#ffffff"/>
<path d="M102.267 15.2365C110.649 14.7566 115.505 16.1043 122.613 20.4602L117.769 28.5083C112.503 24.8574 108.039 23.6611 101.718 24.2716C100.537 25.0034 98.1282 27.0991 98.72 28.559C101.674 35.845 114.43 33.6147 119.819 39.1625C122.419 41.8381 123.338 43.653 123.639 47.3791C124.398 57.7898 116.507 62.3717 107.235 62.8103C98.7452 62.8718 93.8838 60.8446 87.0527 56.1244L92.3424 48.212C97.4447 51.9818 107.6 57.2125 112.717 51.4576C113.492 50.5864 113.73 50.1058 113.687 48.9364C111.22 42.1534 89.8203 44.0365 88.5413 32.0205C87.4722 21.9768 92.818 16.7636 102.267 15.2365Z" fill="#ffffff"/>
<path d="M9.80097 32.2656C13.15 32.8725 30.2712 43.844 35.7295 45.6928C41.7091 43.1942 47.8012 38.8665 53.6861 35.9736C55.5989 35.0333 60.1299 31.8142 62.1619 32.6485C77.4466 38.924 70.6706 40.9874 61.1126 46.0535C58.6211 47.4046 37.1318 59.9298 36.3835 59.5815C29.6005 56.4243 3.83448 44.3004 0.0306911 39.8311C-0.543656 36.3303 7.1002 33.125 9.80097 32.2656Z" fill="#FA992A"/>
<path d="M166.13 27.3494C166.549 27.3003 166.971 27.2731 167.393 27.2681C181.467 27.0982 183.93 35.6658 183.439 47.6291C183.251 52.219 183.402 57.4249 183.376 62.0739L173.99 62.0742L173.889 58.0495C167.631 63.9925 157.996 65.1095 152.338 57.8074C148.813 51.6125 150.567 44.5716 157.5 41.9534C163.484 39.6935 168.458 40.5966 174.111 43.0603C173.926 41.9587 173.674 40.1455 173.189 39.1578C169.935 32.5411 160.671 35.8055 155.821 38.0324C155.043 35.5936 154.375 33.109 153.687 30.6419C158.258 28.774 161.265 27.8283 166.13 27.3494ZM167.638 56.2524C172.835 54.5501 173.676 53.3434 173.947 48.0563C171.173 47.1858 169.794 46.8059 166.781 46.7918C157.302 47.7943 158.045 56.7371 167.638 56.2524Z" fill="#ffffff"/>
<path d="M9.41972 50.3945C14.6288 51.2529 30.8687 63.1554 35.7819 63.2014C40.5537 62.5472 58.479 49.4565 62.1414 50.8372C77.6252 56.6734 69.3227 59.6701 61.2832 63.7694C54.56 68.0953 45.9176 71.674 39.0204 75.8583C37.5916 76.7251 35.7167 77.3608 34.0793 76.7741L33.8486 76.6895C30.771 75.5846 24.879 71.9864 21.524 70.2397C15.453 66.9807 9.28738 63.7633 3.31183 60.3539C-3.41945 56.5132 1.69291 54.298 6.00017 52.1026C7.11494 51.5344 8.312 50.9477 9.41972 50.3945Z" fill="#CBCBCB"/>
<path d="M226.753 13.8329L236.45 13.8047L236.467 41.669C240.457 37.2883 244.404 32.6111 248.29 28.1175L259.985 28.0903C256.082 32.0596 251.655 37.468 247.615 41.7348C250.789 46.2116 253.848 50.9701 256.875 55.5667C258.349 57.6439 259.814 59.9757 261.211 62.125L250.137 62.1045C246.909 57.6748 244.239 52.8353 240.78 48.3089C239.315 49.846 237.874 51.407 236.46 52.9912V62.0972L226.787 62.0962L226.753 13.8329Z" fill="#ffffff"/>
<path d="M308.872 28.1069L315.78 28.12C315.186 30.2324 314.289 32.6458 313.56 34.7491C310.648 43.8595 307.222 52.9923 304.193 62.1046L297.237 62.1094C294.553 55.1088 290.869 44.3787 288.615 37.2578C285.753 45.5521 282.848 53.8295 279.892 62.0902H273.027C269.101 50.858 265.201 39.2665 261.066 28.1425L268.153 28.1337C270.995 35.5216 274.108 46.0014 276.651 53.7224C279.432 45.2915 282.472 36.567 285.088 28.1186C287.352 28.1441 289.69 28.0988 291.957 28.082C294.889 34.8761 297.956 45.9312 300.868 53.5085C302.88 45.8013 306.373 35.8789 308.872 28.1069Z" fill="#ffffff"/>
<path d="M382.436 27.6406C383.077 27.5704 383.726 27.5221 384.37 27.4955C397.117 27.0146 401.393 35.7344 401.628 47.0236L375.201 47.03C377.468 56.2888 385.754 60.6272 393.792 54.6993C395.014 53.631 394.685 53.6061 396.086 53.367C397.466 53.6622 398.934 55.2517 400.039 56.2545C397.218 59.1854 394.477 61.182 390.433 62.2137C385.889 63.3505 381.076 62.6543 377.038 60.2752C373.092 57.9065 370.257 54.0558 369.165 49.5831C366.499 39.0216 372.02 30.2891 382.436 27.6406ZM375.053 41.9854L386.52 41.9786L395.068 42.0263C393.664 35.9362 391.427 32.9382 384.74 32.6856C378.509 33.7364 376.941 36.352 375.053 41.9854Z" fill="#ffffff"/>
<path d="M205.372 27.3344C212.143 26.8545 217.961 29.4021 221.773 35.0399C219.418 36.3762 216.869 38.0913 214.484 39.5244C214.29 39.3081 214.091 39.0958 213.89 38.8883C211.979 36.937 209.634 35.5876 206.837 35.6071C204.626 35.6306 202.521 36.5455 200.992 38.1441C192.39 47.1936 205.312 61.854 214.797 50.3173L217.914 52.4078C219.244 53.2955 220.641 54.0447 222.038 54.8209L221.854 55.0751C215.657 63.4896 203.579 65.4704 195.266 59.0803C191.548 56.2405 189.144 52.0116 188.606 47.3646C187.288 36.2959 194.661 28.5441 205.372 27.3344Z" fill="#ffffff"/>
<path d="M130.073 18.8438L139.729 18.8555L139.719 27.9675C142.29 28.1418 144.981 28.0716 147.568 28.0528L147.66 36.1002C145.045 36.1731 142.344 36.1724 139.721 36.2067C139.803 40.6173 139.259 46.2073 139.79 50.535C140.307 54.7511 144.035 54.2373 147.243 53.3567C147.316 55.1007 147.541 56.8179 147.743 58.5508C147.803 59.4673 147.88 59.6977 147.583 60.539C142.871 64.923 131.409 62.4862 130.446 56.4155C129.561 50.8426 130.052 41.9774 130.118 36.1516L125.294 36.1029L125.292 28.0545L130 28.1391L130.073 18.8438Z" fill="#ffffff"/>
<path d="M347.964 27.6233C353.708 26.8885 358.188 28.531 362.897 31.5936L360.207 36.4438C356.267 33.613 345.364 29.503 343.97 36.883C344.625 43.1468 364.14 41.4407 363.871 51.7342C363.67 59.3706 358.595 62.1473 351.672 62.5422C345.086 62.6457 341.556 61.2368 336.37 57.3283L339.54 52.7989C343.127 55.4157 348.068 57.7428 352.186 56.9995C363.74 54.9157 354.571 47.8999 348.347 47.2739C346.631 47.101 343.097 45.3744 341.781 44.6272C336.695 41.7403 337.149 36.4105 339.896 31.9922C341.542 29.3471 344.924 28.1912 347.964 27.6233Z" fill="#ffffff"/>
<path d="M329.061 28.1172C329.236 28.9907 329.169 37.0391 329.169 38.3311L329.139 62.1076L322.519 62.0565C322.27 60.1053 322.418 53.3751 322.421 51.0154L322.461 28.1488L329.061 28.1172Z" fill="#ffffff"/>
<path d="M324.272 13.9644C325.649 13.3633 327.244 13.5614 328.43 14.4813C329.619 15.4012 330.21 16.8963 329.975 18.3801C329.736 19.8638 328.708 21.0993 327.291 21.6024C325.205 22.3436 322.908 21.2995 322.092 19.2415C321.279 17.1831 322.243 14.85 324.272 13.9644Z" fill="#ffffff"/>
</svg>
