<svg width="80" height="80" viewBox="0 0 80 80" fill="none" xmlns="http://www.w3.org/2000/svg">
  <path d="M34.7062 0C35.301 0.0114186 35.863 0.104783 36.4333 0.278077C39.3174 1.15462 70.1149 18.2925 70.6136 19.4404C71.0163 20.3663 70.8974 21.3289 70.5911 22.2524C68.4167 24.3047 40.1867 39.613 36.1444 41.442C32.1495 41.3597 18.4405 32.0536 14.0287 30.1285C10.8147 28.7264 6.27504 25.7831 2.95828 24.2084C-0.0625847 22.7737 -1.38929 20.0419 2.01212 18.0359C5.66376 15.8046 9.52196 13.8198 13.2888 11.7759C20.4584 7.90601 27.5977 3.98038 34.7062 0ZM21.151 20.006C23.2166 21.1714 34.3744 27.6702 35.7397 27.7427C40.5081 25.2055 45.2477 22.6141 49.9576 19.9694C47.2891 18.5451 36.8252 12.5245 35.076 12.4086C30.4604 14.8791 25.6587 17.3777 21.151 20.006Z" fill="#ffffff"/>
  <path d="M9.80097 32.2656C13.15 32.8725 30.2712 43.844 35.7295 45.6928C41.7091 43.1942 47.8012 38.8665 53.6861 35.9736C55.5989 35.0333 60.1299 31.8142 62.1619 32.6485C77.4466 38.924 70.6706 40.9874 61.1126 46.0535C58.6211 47.4046 37.1318 59.9298 36.3835 59.5815C29.6005 56.4243 3.83448 44.3004 0.0306911 39.8311C-0.543656 36.3303 7.1002 33.125 9.80097 32.2656Z" fill="#FA992A"/>
  <path d="M9.41972 50.3945C14.6288 51.2529 30.8687 63.1554 35.7819 63.2014C40.5537 62.5472 58.479 49.4565 62.1414 50.8372C77.6252 56.6734 69.3227 59.6701 61.2832 63.7694C54.56 68.0953 45.9176 71.674 39.0204 75.8583C37.5916 76.7251 35.7167 77.3608 34.0793 76.7741L33.8486 76.6895C30.771 75.5846 24.879 71.9864 21.524 70.2397C15.453 66.9807 9.28738 63.7633 3.31183 60.3539C-3.41945 56.5132 1.69291 54.298 6.00017 52.1026C7.11494 51.5344 8.312 50.9477 9.41972 50.3945Z" fill="#CBCBCB"/>
</svg>
